<svg xmlns="http://www.w3.org/2000/svg" version="1.1" xmlns:xlink="http://www.w3.org/1999/xlink" xmlns:svgjs="http://svgjs.com/svgjs" height="139.35254660020274" width="292.6499938964843"><defs id="SvgjsDefs1174"></defs><g id="SvgjsG1175" rel="mainfill" name="main_text" xmlns:name="main_text" transform="translate(80.73000001907343,-174.74872975165644)" fill="#1c739b"><path d="M13.75 240.34C16.97 240.34 19.19 239.66 21.07 238.77C21.41 238.60 21.48 238.36 21.35 238.02L19.40 233.88C19.22 233.53 19.02 233.50 18.68 233.67C17.17 234.42 15.60 234.87 13.79 234.87C10.19 234.87 7.56 232.13 7.56 228.34C7.56 224.50 10.40 221.84 13.75 221.84C15.56 221.84 16.97 222.31 18.44 223.00C18.75 223.10 19.02 223.07 19.19 222.76L21.14 218.69C21.28 218.42 21.28 218.11 20.90 217.90C19.29 217.12 17.14 216.40 13.92 216.40C6.81 216.40 1.27 221.43 1.27 228.34C1.27 235.72 5.92 240.34 13.75 240.34ZM23.26 224.20C22.92 224.20 22.65 224.47 22.65 224.81L22.65 228.47C22.65 228.81 22.92 229.09 23.26 229.09L27.67 229.09L27.67 239.38C27.67 239.73 27.95 240 28.29 240L32.57 240C32.91 240 33.18 239.73 33.18 239.38L33.18 229.09L37.59 229.09C37.94 229.09 38.21 228.81 38.21 228.47L38.21 224.81C38.21 224.47 37.94 224.20 37.59 224.20ZM46.18 228.51C46.66 228.44 47.27 228.40 47.79 228.40C48.85 228.40 49.70 228.78 50.29 229.50C50.80 230.15 51.07 231.04 51.07 232.17C51.07 233.57 50.70 234.56 50.01 235.11C49.29 235.69 48.40 235.83 47.38 235.83C46.97 235.83 46.49 235.79 46.18 235.72ZM41.25 224.47C40.84 224.57 40.64 224.81 40.64 225.15L40.64 247.46C40.64 247.80 40.91 248.07 41.25 248.07L45.56 248.07C45.91 248.07 46.18 247.80 46.18 247.46L46.18 240.27C46.73 240.34 47.34 240.34 47.96 240.34C50.56 240.34 53.12 239.56 54.77 237.67C55.90 236.37 56.58 234.60 56.58 232.17C56.58 229.70 55.79 227.82 54.49 226.49C52.82 224.74 50.22 223.92 47.21 223.92C45.02 223.92 42.73 224.13 41.25 224.47ZM64.38 232.13C64.38 231.00 64.75 230.01 65.37 229.33C65.92 228.75 66.67 228.40 67.53 228.40C68.38 228.40 69.13 228.75 69.68 229.33C70.30 230.01 70.67 231.00 70.67 232.13C70.67 233.26 70.30 234.25 69.68 234.94C69.13 235.52 68.38 235.86 67.53 235.86C66.67 235.86 65.92 235.52 65.37 234.94C64.75 234.25 64.38 233.26 64.38 232.13ZM58.91 232.13C58.91 234.73 59.93 236.89 61.61 238.29C63.15 239.62 65.27 240.34 67.53 240.34C69.78 240.34 71.90 239.62 73.44 238.29C75.12 236.89 76.15 234.73 76.15 232.13C76.15 229.53 75.12 227.38 73.44 225.97C71.90 224.64 69.78 223.92 67.53 223.92C65.27 223.92 63.15 224.64 61.61 225.97C59.93 227.38 58.91 229.53 58.91 232.13ZM87.67 216.81C86.27 216.81 85.72 216.09 85.52 215.06C85.45 214.65 85.18 214.45 84.83 214.45L82.85 214.45C82.37 214.45 82.13 214.75 82.13 215.10C82.13 218.00 83.98 220.71 87.67 220.71C91.37 220.71 93.22 218.00 93.22 215.10C93.22 214.75 92.98 214.45 92.50 214.45L90.51 214.45C90.17 214.45 89.90 214.65 89.83 215.06C89.62 216.09 89.08 216.81 87.67 216.81ZM95.95 224.81C95.95 224.47 95.68 224.20 95.34 224.20L91.03 224.20C90.68 224.20 90.41 224.47 90.41 224.81L90.41 226.97L84.94 231.58L84.94 224.81C84.94 224.47 84.66 224.20 84.32 224.20L80.01 224.20C79.67 224.20 79.40 224.47 79.40 224.81L79.40 239.38C79.40 239.73 79.67 240 80.01 240L84.32 240C84.66 240 84.94 239.73 84.94 239.38L84.94 237.30L90.41 232.71L90.41 239.38C90.41 239.73 90.68 240 91.03 240L95.34 240C95.68 240 95.95 239.73 95.95 239.38ZM115.21 239.38C115.21 239.73 115.48 240 115.83 240L120.62 240C120.96 240 121.23 239.73 121.23 239.38L121.23 217.32C121.23 216.98 120.96 216.70 120.62 216.70L115.83 216.70C115.48 216.70 115.21 216.98 115.21 217.32L115.21 220.19L106.25 229.29L106.25 217.32C106.25 216.98 105.97 216.70 105.63 216.70L100.84 216.70C100.50 216.70 100.23 216.98 100.23 217.32L100.23 239.38C100.23 239.73 100.50 240 100.84 240L105.63 240C105.97 240 106.25 239.73 106.25 239.38L106.25 236.68L115.21 227.55ZM137.00 224.20C136.66 224.20 136.39 224.47 136.39 224.81L136.39 229.60L131.01 229.60L131.01 224.81C131.01 224.47 130.74 224.20 130.40 224.20L126.12 224.20C125.78 224.20 125.51 224.47 125.51 224.81L125.51 239.38C125.51 239.73 125.78 240 126.12 240L130.40 240C130.74 240 131.01 239.73 131.01 239.38L131.01 234.42L136.39 234.42L136.39 239.38C136.39 239.73 136.66 240 137.00 240L141.24 240C141.58 240 141.86 239.73 141.86 239.38L141.86 224.81C141.86 224.47 141.58 224.20 141.24 224.20ZM154.99 240C157.59 240 160.33 238.70 160.33 235.66C160.33 233.57 159.41 232.20 157.08 231.65L157.08 231.55C158.38 230.94 159.03 229.74 159.03 228.23C159.03 226.90 158.42 225.94 157.56 225.29C156.36 224.33 154.93 224.20 153.52 224.20L146.65 224.20C146.31 224.20 146.03 224.47 146.03 224.81L146.03 239.38C146.03 239.73 146.31 240 146.65 240ZM153.69 229.12C153.69 229.64 153.39 229.91 153.04 230.05C152.74 230.18 152.36 230.18 152.12 230.18L151.37 230.18L151.37 228.06L152.33 228.06C152.67 228.06 153.01 228.13 153.25 228.27C153.52 228.47 153.69 228.71 153.69 229.12ZM154.86 234.90C154.86 235.55 154.52 235.90 154.00 236.07C153.66 236.17 153.22 236.20 152.77 236.20L151.37 236.20L151.37 233.60L152.46 233.60C153.08 233.60 153.56 233.64 153.90 233.77C154.58 233.98 154.86 234.39 154.86 234.90ZM168.47 230.25C168.57 229.64 168.78 229.16 169.12 228.78C169.50 228.37 170.18 228.16 170.87 228.16C171.62 228.16 172.20 228.40 172.58 228.85C172.95 229.29 173.06 229.70 173.12 230.25ZM171.79 236.07C170.80 236.07 169.94 235.79 169.40 235.28C168.95 234.87 168.64 234.32 168.47 233.57L177.78 233.57C178.12 233.57 178.36 233.30 178.39 232.95C178.63 230.52 178.22 228.37 177.13 226.76C175.90 225.02 173.84 223.92 170.83 223.92C168.37 223.92 166.42 224.71 165.05 226.04C163.61 227.48 162.66 229.50 162.66 231.93C162.66 234.49 163.51 236.68 165.09 238.15C166.56 239.56 168.68 240.34 171.35 240.34C173.60 240.34 176.00 239.66 177.26 238.73C177.54 238.53 177.64 238.22 177.50 237.95L176.07 235.28C175.90 235.01 175.59 234.87 175.18 235.11C174.08 235.76 173.06 236.07 171.79 236.07ZM189.71 235.76C188.59 235.76 187.73 235.38 187.15 234.73C186.57 234.08 186.26 233.16 186.26 232.10C186.26 231.07 186.60 230.18 187.22 229.53C187.80 228.95 188.62 228.57 189.71 228.57C190.88 228.57 191.63 228.92 192.69 229.57C193.03 229.77 193.44 229.70 193.58 229.40L195.22 226.35C195.36 226.08 195.26 225.77 194.98 225.56C193.72 224.64 191.94 223.92 189.68 223.92C186.60 223.92 183.93 225.05 182.29 227.10C181.23 228.40 180.62 230.11 180.62 232.10C180.62 234.39 181.33 236.34 182.63 237.74C184.17 239.42 186.53 240.34 189.54 240.34C191.80 240.34 193.79 239.66 195.05 238.73C195.32 238.53 195.43 238.22 195.29 237.95L193.72 235.01C193.58 234.70 193.24 234.60 192.83 234.83C191.77 235.45 190.91 235.76 189.71 235.76ZM196.97 224.20C196.62 224.20 196.35 224.47 196.35 224.81L196.35 228.47C196.35 228.81 196.62 229.09 196.97 229.09L201.38 229.09L201.38 239.38C201.38 239.73 201.65 240 202.00 240L206.27 240C206.61 240 206.89 239.73 206.89 239.38L206.89 229.09L211.30 229.09C211.64 229.09 211.92 228.81 211.92 228.47L211.92 224.81C211.92 224.47 211.64 224.20 211.30 224.20Z" fill="#1c739b" style="fill: rgb(28, 115, 155);"></path></g><g id="SvgjsG1176" rel="mainfill" name="slogan_text" xmlns:name="slogan_text" transform="translate(82.51500183343882,-143.39872364814082)" fill="#1c739b"><path d="M0.19 243.05L1.92 243.05L1.94 240L10.07 240L10.09 243.05L11.82 243.05L11.78 238.48L10.35 238.48L10.35 227.48L2.65 227.48L2.89 229.23L2.87 230.48C2.87 233.72 2.66 236.19 1.43 238.48L0.23 238.48ZM4.59 230.48L4.59 229.00L8.64 229.00L8.64 238.48L3.33 238.48C4.38 236.19 4.59 233.72 4.59 230.48ZM17.76 230.35C14.85 230.35 13.55 232.81 13.55 235.49C13.55 237.85 14.98 240.25 17.47 240.25C19.83 240.25 21.18 238.93 21.18 238.93L20.92 237.49C20.92 237.49 19.55 238.78 17.93 238.78C16.08 238.78 15.28 237.03 15.24 235.32L20.55 235.32L20.99 234.82C20.95 233.64 20.73 230.35 17.76 230.35ZM17.53 231.59C18.84 231.59 19.20 233.11 19.26 234.10L15.34 234.10C15.61 232.73 16.23 231.59 17.53 231.59ZM31.33 230.43L29.48 230.64L29.73 232.39L29.73 234.58L25.35 234.58L25.35 230.43L23.50 230.64L23.75 232.39L23.75 240L25.54 240L25.35 238.57L25.35 235.87L29.73 235.87L29.73 240L31.52 240L31.33 238.61ZM37.99 235.32C39.61 235.32 40.06 236.06 40.06 237.03C40.06 238.00 39.61 238.74 37.99 238.74L36.48 238.74L36.48 235.32ZM36.48 230.43L34.64 230.64L34.89 232.39L34.89 240L37.82 240C40.75 240 41.68 238.71 41.68 237.03C41.68 235.36 40.75 234.06 37.82 234.06L36.48 234.06ZM43.81 230.64L44.00 232.06L44.00 240L45.79 240L45.60 238.57L45.60 231.97L49.43 231.97L49.43 230.64ZM53.21 230.43L51.37 230.64L51.62 232.39L51.62 240L53.12 240L57.12 234.04L57.59 233.11L57.59 240L59.38 240L59.19 238.61L59.19 230.64L57.69 230.64L53.69 236.59L53.21 237.53ZM68.55 233.59C68.42 236.46 68.19 238.74 66.97 238.74C66.75 238.74 66.48 238.71 66.27 238.63L66.44 240.11C66.69 240.19 67.05 240.25 67.32 240.25C69.83 240.25 70.06 236.38 70.17 233.49L70.23 231.93L73.50 231.93L73.50 240L75.29 240L75.10 238.61L75.10 230.64L68.44 230.64L68.63 232.03ZM85.53 240.25C88.33 240.25 89.95 237.91 89.95 235.11C89.95 231.82 88.33 230.35 86.18 230.35C83.68 230.35 81.90 232.08 81.57 234.61L80.20 234.61L80.20 230.64L78.41 230.64L78.60 232.03L78.60 240L80.39 240L80.20 238.57L80.20 235.91L81.53 235.91C81.69 237.89 82.87 240.25 85.53 240.25ZM83.27 235.30C83.27 233.30 84.33 231.63 85.83 231.63C87.34 231.63 88.19 233.30 88.19 235.30C88.19 237.30 87.34 238.97 85.83 238.97C84.33 238.97 83.27 237.30 83.27 235.30ZM96.05 232.65C97.54 232.65 98.53 234.04 98.53 235.81C98.53 237.68 97.50 238.97 96.05 238.97C94.44 238.97 93.47 237.58 93.47 235.87C93.47 234.00 94.49 232.65 96.05 232.65ZM99.80 228.49L100.05 226.72C99.86 226.81 99.37 226.91 99.10 226.94C93.24 227.72 91.81 228.96 91.81 235.24L91.81 235.91C91.81 238.59 93.52 240.25 95.75 240.25C98.57 240.25 100.28 238.33 100.28 235.62C100.28 233.03 98.57 231.38 96.40 231.38C94.97 231.38 93.98 232.04 93.33 233.02C93.62 230.07 94.44 229.21 99.80 228.49ZM106.20 235.32C104.58 235.32 104.12 234.58 104.12 233.61C104.12 232.63 104.58 231.89 106.20 231.89L107.51 231.89L107.51 235.32ZM107.51 236.57L107.51 240L109.30 240L109.11 238.61L109.11 230.64L106.37 230.64C103.44 230.64 102.51 231.93 102.51 233.61C102.51 234.82 103.00 235.85 104.41 236.31L101.78 240L103.82 240L106.26 236.57ZM111.05 230.64L111.05 231.97L114.12 231.97L114.12 240L115.91 240L115.72 238.57L115.72 231.97L118.78 231.97L118.78 230.64ZM126.64 232.77C126.58 234.77 126.32 237.24 125.42 238.71L124.43 238.71L124.43 242.76L126.03 242.76L126.03 240L132.60 240L132.60 242.76L134.20 242.76L134.20 238.71L132.96 238.71L132.96 230.64L126.47 230.64L126.66 232.03ZM127.19 238.71C127.93 237.24 128.26 234.77 128.26 232.77L128.26 231.93L131.36 231.93L131.36 238.71ZM138.15 231.78L139.51 231.74C140.99 231.70 141.60 232.10 141.60 233.00C141.60 233.61 141.24 234.14 140.91 234.46C140.82 234.44 140.36 234.40 139.92 234.40L138.15 234.40ZM138.15 235.60L139.71 235.60C141.26 235.60 142.02 236.10 142.02 237.20C142.02 238.00 141.56 238.74 139.94 238.74L138.15 238.74ZM136.36 230.64L136.56 232.03L136.56 240L139.77 240C142.70 240 143.64 238.71 143.64 237.09C143.64 235.85 142.85 235.11 141.88 234.73C142.46 234.27 143.06 233.72 143.06 232.79C143.06 231.30 141.81 230.45 139.68 230.52ZM147.80 230.43L145.96 230.64L146.20 232.39L146.20 240L147.71 240L151.70 234.04L152.18 233.11L152.18 240L153.97 240L153.78 238.61L153.78 230.64L152.28 230.64L148.28 236.59L147.80 237.53ZM161.56 234.65L160.71 234.65L159.56 232.37C158.80 230.86 157.83 230.48 156.84 230.48C156.60 230.48 156.31 230.54 156.16 230.60L155.99 232.01C156.12 231.95 156.37 231.93 156.54 231.93C157.09 231.93 157.68 232.16 158.16 233.07L159.26 235.22L155.76 240L157.81 240L160.73 235.95L161.56 235.95L161.56 240L163.35 240L163.16 238.57L163.16 235.95L164.00 235.95L166.91 240L168.97 240L165.46 235.22L166.57 233.07C167.04 232.16 167.63 231.93 168.19 231.93C168.36 231.93 168.61 231.95 168.74 232.01L168.57 230.60C168.41 230.54 168.13 230.48 167.88 230.48C166.89 230.48 165.92 230.86 165.16 232.37L164.02 234.65L163.16 234.65L163.16 230.64L161.37 230.64L161.56 232.06ZM174.37 230.35C171.46 230.35 170.17 232.81 170.17 235.49C170.17 237.85 171.59 240.25 174.09 240.25C176.45 240.25 177.80 238.93 177.80 238.93L177.53 237.49C177.53 237.49 176.16 238.78 174.54 238.78C172.70 238.78 171.90 237.03 171.86 235.32L177.17 235.32L177.61 234.82C177.57 233.64 177.34 230.35 174.37 230.35ZM174.14 231.59C175.46 231.59 175.82 233.11 175.88 234.10L171.95 234.10C172.22 232.73 172.85 231.59 174.14 231.59ZM187.94 230.43L186.10 230.64L186.34 232.39L186.34 234.58L181.97 234.58L181.97 230.43L180.12 230.64L180.37 232.39L180.37 240L182.16 240L181.97 238.57L181.97 235.87L186.34 235.87L186.34 240L188.13 240L187.94 238.61ZM193.10 230.43L191.25 230.64L191.50 232.39L191.50 240L193.00 240L197.00 234.04L197.48 233.11L197.48 240L199.27 240L199.08 238.61L199.08 230.64L197.57 230.64L193.58 236.59L193.10 237.53ZM206.00 230.35C203.09 230.35 201.80 232.81 201.80 235.49C201.80 237.85 203.22 240.25 205.72 240.25C208.08 240.25 209.43 238.93 209.43 238.93L209.16 237.49C209.16 237.49 207.79 238.78 206.17 238.78C204.33 238.78 203.53 237.03 203.49 235.32L208.80 235.32L209.24 234.82C209.20 233.64 208.97 230.35 206.00 230.35ZM205.77 231.59C207.09 231.59 207.45 233.11 207.51 234.10L203.59 234.10C203.85 232.73 204.48 231.59 205.77 231.59Z" fill="#1c739b" style="fill: rgb(28, 115, 155);"></path></g><g id="SvgjsG1177" rel="mainfill" name="symbol" xmlns:name="symbol_mainfill" transform="translate(-3.326010088374861,-4.065868611217039) scale(0.739114527763093)" fill="#1c739b"><path d="M95.148,54.107c0-0.001-0.001-0.003-0.001-0.004c0-0.086-0.027-0.164-0.066-0.234c-0.011-0.02-0.022-0.035-0.035-0.053  c-0.043-0.059-0.096-0.107-0.159-0.143c-0.009-0.004-0.012-0.014-0.021-0.018l-3.575-1.73l0.154-14.312  c0-0.013-0.008-0.023-0.009-0.036c-0.004-0.061-0.018-0.118-0.042-0.173c-0.011-0.023-0.023-0.043-0.037-0.064  c-0.029-0.044-0.064-0.082-0.107-0.116c-0.013-0.01-0.02-0.026-0.033-0.036c-0.007-0.004-0.017-0.003-0.023-0.008  c-0.011-0.006-0.017-0.016-0.027-0.021l-11.188-5.493V24.62c0-0.014-0.009-0.025-0.01-0.038c-0.005-0.06-0.019-0.116-0.044-0.17  c-0.01-0.022-0.021-0.041-0.035-0.062c-0.029-0.045-0.065-0.082-0.109-0.116c-0.013-0.011-0.019-0.027-0.033-0.036  c-0.007-0.004-0.016-0.003-0.022-0.007c-0.01-0.006-0.017-0.015-0.026-0.02l-16.066-7.857L49.366,5.601  c-0.009-0.007-0.021-0.004-0.029-0.01c-0.078-0.051-0.165-0.089-0.265-0.09c-0.002,0-0.005,0.001-0.007,0.001  c-0.006,0-0.011,0.003-0.017,0.003c-0.099,0.004-0.187,0.04-0.263,0.093c-0.008,0.006-0.02,0.003-0.028,0.01l-10.962,8.605  c-0.052,0.006-0.104,0.014-0.155,0.038l-19.96,9.309c-0.007,0.003-0.009,0.01-0.016,0.014c-0.067,0.035-0.122,0.085-0.167,0.146  c-0.014,0.018-0.025,0.034-0.036,0.054c-0.038,0.066-0.062,0.139-0.065,0.219c0,0.006-0.005,0.01-0.005,0.016  c0,0.001,0.001,0.002,0.001,0.003c0,0.002-0.001,0.003-0.001,0.005l0.029,3.415L6.002,32.635c-0.012,0.005-0.019,0.016-0.03,0.022  c-0.008,0.004-0.018,0.003-0.025,0.008c-0.014,0.009-0.021,0.025-0.034,0.035c-0.043,0.033-0.08,0.07-0.109,0.114  c-0.014,0.021-0.027,0.04-0.038,0.062c-0.027,0.056-0.042,0.115-0.047,0.177c-0.001,0.012-0.009,0.021-0.009,0.033L4.5,169.051  c-0.001,0.193,0.106,0.368,0.279,0.453l45.996,22.627c0.062,0.031,0.128,0.047,0.194,0.051c0.003,0,0.006-0.002,0.009-0.001  c0.075,0.002,0.147-0.016,0.214-0.045c0.008-0.003,0.017-0.001,0.024-0.005l3.52-1.734l7.54,3.596  c0.048,0.023,0.099,0.03,0.148,0.037c0.014,0.002,0.024,0.009,0.038,0.01c0.076,0.005,0.15-0.012,0.22-0.041  c0.007-0.003,0.014-0.001,0.02-0.004l31.012-14.421c0.175-0.081,0.287-0.256,0.289-0.448l1.146-125.016  C95.148,54.109,95.148,54.108,95.148,54.107C95.148,54.108,95.148,54.108,95.148,54.107z M63.906,68.087l-6.756-3.102l6.944-3.268  c0.176-0.083,0.287-0.258,0.287-0.453V54.22l5.253-2.399c0.05,0.017,0.101,0.031,0.156,0.031c0.209-0.001,0.387-0.13,0.461-0.312  l1.341-0.613l7.424,3.493c0.003,0.001,0.006,0.001,0.008,0.002c0.055,0.024,0.115,0.037,0.179,0.041  c0.009,0,0.017,0.005,0.025,0.005h0.001c0.072,0,0.141-0.017,0.202-0.044c0.002-0.001,0.005,0,0.007-0.001l7.546-3.47l6.505,3.148  L63.906,68.087z M51.008,46.078c0.054-0.127,0.188-0.418,0.415-0.748c0.272-0.398,0.672-0.828,1.18-1.074  c0.289-0.14,0.518-0.182,0.705-0.182c0.258,0,0.449,0.083,0.584,0.166l0.062,0.046l0.02,2.757l-2.965,1.404V46.078z M54.969,46.57  l-0.018-2.518c-0.001-0.116-0.043-0.23-0.117-0.318c-0.024-0.028-0.159-0.185-0.413-0.344c-0.253-0.158-0.634-0.317-1.113-0.317  c-0.345,0-0.733,0.083-1.144,0.284c-0.774,0.38-1.295,0.994-1.63,1.502c-0.335,0.51-0.487,0.924-0.496,0.949l-0.03,0.171v2.94  l-0.823,0.39v-9.96l29.792-13.943v9.866l-0.936,0.439l-0.059-2.619c-0.003-0.115-0.046-0.229-0.122-0.316  c-0.024-0.028-0.159-0.179-0.409-0.333c-0.249-0.152-0.623-0.306-1.094-0.306c-0.353,0-0.752,0.088-1.171,0.301  c-0.77,0.392-1.28,1.013-1.608,1.526c-0.327,0.515-0.473,0.931-0.481,0.956l-0.028,0.172l0.045,2.931l-1.68,0.789  c-0.011,0.005-0.017,0.014-0.026,0.02c-0.008,0.004-0.017,0.003-0.023,0.007c-0.014,0.009-0.021,0.025-0.033,0.035  c-0.045,0.034-0.083,0.073-0.113,0.119c-0.013,0.02-0.024,0.037-0.035,0.058c-0.027,0.057-0.042,0.116-0.047,0.18  c-0.001,0.011-0.009,0.021-0.009,0.033l-0.05,10.789l-0.813,0.371l-0.067-13.71c-0.001-0.118-0.041-0.229-0.117-0.319  c-0.024-0.028-0.355-0.418-0.983-0.81c-0.627-0.392-1.56-0.784-2.753-0.784c-0.858,0-1.844,0.204-2.927,0.733  c-2.048,1.001-3.475,2.666-4.398,4.068c-0.923,1.405-1.345,2.559-1.354,2.583l-0.03,0.171v4.275l-1.178-0.569  c-0.137-0.066-0.295-0.067-0.432-0.001L54.969,46.57z M74.107,37.56l-0.037-2.383c0.053-0.129,0.183-0.421,0.404-0.753  c0.268-0.402,0.66-0.838,1.164-1.091c0.296-0.149,0.529-0.193,0.72-0.193c0.252,0,0.44,0.08,0.573,0.16l0.057,0.042l0.063,2.836  L74.107,37.56z M78.729,53.179l-6.632-3.121l0.046-9.986l6.586,3.275V53.179z M58.653,42.451c0.109-0.279,0.556-1.342,1.388-2.548  c0.862-1.253,2.133-2.642,3.834-3.471c0.962-0.468,1.788-0.631,2.488-0.631c0.972,0,1.715,0.316,2.224,0.632  c0.254,0.158,0.447,0.316,0.573,0.431l0.058,0.056l0.069,13.959l-4.905,2.241v-2.923c0-0.013-0.009-0.024-0.01-0.037  c-0.005-0.06-0.019-0.117-0.044-0.172c-0.01-0.022-0.022-0.041-0.035-0.061c-0.029-0.045-0.065-0.083-0.109-0.117  c-0.013-0.01-0.02-0.027-0.033-0.036c-0.007-0.004-0.017-0.003-0.023-0.008c-0.011-0.006-0.017-0.016-0.027-0.021l-5.446-2.632  V42.451z M87.208,49.948c-0.135-0.065-0.29-0.067-0.427-0.004l-7.052,3.242v-9.83l10.707-4.962l-0.14,13.048L87.208,49.948z   M89.784,37.595l-10.547,4.888l-6.44-3.203l6.894-3.237c0.024-0.011,0.04-0.031,0.062-0.045c0.03-0.021,0.062-0.038,0.086-0.064  c0.024-0.025,0.039-0.055,0.057-0.083c0.017-0.026,0.035-0.049,0.046-0.077c0.015-0.036,0.018-0.075,0.023-0.114  c0.003-0.023,0.014-0.044,0.014-0.068v-2.81L89.784,37.595z M48.553,7.039l-0.357,27.768L26.309,24.5L48.553,7.039z M49.553,6.992  l13.289,9.979c0.046,0.063,0.103,0.12,0.178,0.157l0.088,0.043l9.201,6.91L49.195,34.802L49.553,6.992z M34.441,16.845l-9.387,7.369  c-0.137,0.107-0.208,0.276-0.188,0.449c0.02,0.173,0.127,0.322,0.284,0.396l23.322,10.983c0.001,0.001,0.003,0,0.005,0.001  c0.062,0.028,0.129,0.045,0.201,0.046c0.001,0,0.001,0,0.002,0c0.012,0,0.023-0.006,0.036-0.007  c0.059-0.004,0.116-0.014,0.168-0.037c0.003-0.001,0.007-0.001,0.011-0.002l24.592-11.407c0.159-0.074,0.269-0.227,0.287-0.401  s-0.057-0.347-0.197-0.452l-5.695-4.277l10.438,5.104l-29.63,13.867L19.052,24.022L34.441,16.845z M48.185,39.344v9.952  L18.483,34.664l-0.085-9.849L48.185,39.344z M17.486,34.981c0.001,0.188,0.11,0.361,0.279,0.444l30.699,15.123  c0.008,0.004,0.017,0.001,0.024,0.005c0.069,0.03,0.144,0.049,0.221,0.045c0.002,0,0.004-0.001,0.007-0.002  c0.062-0.004,0.124-0.017,0.183-0.045l1.804-0.854l0,0l3.852-1.825c0.102-0.017,0.194-0.057,0.266-0.125l1.436-0.68l6.46,3.123  l-10.387,4.843L7.381,33.105l10.049-4.58L17.486,34.981z M6.703,33.887l45.119,22.011l-1.317,134.986l-45-22.138L6.703,33.887z   M52.821,55.907l10.561-4.925v2.917v7.049l-7.631,3.591c-0.009,0.004-0.013,0.014-0.021,0.019c-0.065,0.035-0.118,0.084-0.161,0.143  c-0.013,0.017-0.024,0.031-0.035,0.05c-0.039,0.071-0.068,0.148-0.069,0.236l-1.229,124.542l-2.731,1.347L52.821,55.907z   M56.456,65.768l6.898,3.167L62,192.753l-6.765-3.227L56.456,65.768z M67.075,180.57l2.915-1.361l-0.05,10.045l-2.847,1.364  L67.075,180.57z M73.835,176.046c0.006-0.007,0.008-0.01,0.015-0.018c0.283-0.348,1.037-1.243,1.975-2.16  c0.934-0.918,2.065-1.854,3.033-2.28c0.682-0.304,1.386-0.411,2.041-0.411c0.729,0,1.392,0.135,1.868,0.27  c0.188,0.053,0.335,0.104,0.457,0.147v11.755l-9.312,4.33L73.835,176.046z M86.454,171.936l2.915-1.362l-0.049,9.764l-2.846,1.364  L86.454,171.936z M93.006,178.8l-2.685,1.248l0.052-10.259c0.001-0.173-0.086-0.331-0.23-0.424s-0.325-0.105-0.481-0.032  l-3.92,1.831c-0.176,0.082-0.288,0.26-0.288,0.454l0.023,10.683l-1.253,0.583v-11.631c0-0.194-0.114-0.372-0.29-0.454  c-0.038-0.015-1.336-0.619-3.035-0.622c-0.763,0-1.61,0.126-2.447,0.497c-1.34,0.602-2.685,1.817-3.732,2.886  c-1.044,1.069-1.771,1.993-1.777,2.002c-0.07,0.09-0.108,0.199-0.107,0.312l0.08,12.269l-1.973,0.918l0.053-10.636  c0.001-0.173-0.085-0.331-0.23-0.424c-0.145-0.093-0.325-0.105-0.481-0.032l-3.92,1.83c-0.176,0.082-0.288,0.26-0.288,0.454  l0.021,11.061L63,192.753l1.354-123.771l29.787-14.083L93.006,178.8z M56.183,61.609l3.729-1.819  c0.012-0.005,0.017-0.018,0.027-0.024c0.055-0.032,0.102-0.073,0.142-0.125c0.013-0.016,0.026-0.027,0.037-0.044  c0.004-0.007,0.012-0.012,0.016-0.019c0.036-0.066,0.052-0.137,0.056-0.208c0.001-0.004,0.004-0.007,0.004-0.012l0.131-3.754  c0.006-0.175-0.081-0.341-0.228-0.437c-0.147-0.095-0.334-0.107-0.492-0.03l-3.859,1.883c-0.172,0.083-0.28,0.258-0.28,0.449v3.689  c0,0.172,0.089,0.333,0.235,0.424C55.845,61.675,56.028,61.685,56.183,61.609z M56.464,59.649l1.421-0.712l0.712,0.382l-2.133,1.041  V59.649z M59.221,58.52l-0.827-0.445v-1.234l0.9-0.439L59.221,58.52z M57.394,57.329v0.736l-0.93,0.466v-0.749L57.394,57.329z   M87.458,43.034c-0.001-0.172-0.091-0.331-0.236-0.421c-0.146-0.09-0.328-0.1-0.483-0.024l-1.743,0.851  c-0.064,0.017-0.122,0.045-0.174,0.085l-1.876,0.915c-0.17,0.083-0.278,0.254-0.28,0.444l-0.04,3.709  c-0.002,0.174,0.086,0.335,0.232,0.428c0.147,0.093,0.331,0.103,0.486,0.027l3.861-1.884c0.174-0.084,0.283-0.26,0.281-0.453  L87.458,43.034z M85.621,44.246l0.843-0.411l0.017,2.087l-0.859-0.462V44.246z M84.621,44.734v0.716l-0.967,0.484l0.008-0.732  L84.621,44.734z M83.642,47.059l1.472-0.737l0.73,0.394l-2.21,1.078L83.642,47.059z M43.502,45.213l3.757,1.752  c0.155,0.072,0.336,0.06,0.48-0.031c0.144-0.092,0.231-0.251,0.231-0.422v-5.434c0-0.194-0.113-0.372-0.289-0.454l-3.871-1.8  c-0.156-0.072-0.34-0.059-0.484,0.035c-0.144,0.094-0.23,0.257-0.227,0.429l0.114,5.481C43.217,44.962,43.329,45.132,43.502,45.213z   M46.971,44.716l-1.765-0.836l-0.043-3.323l1.809,0.841V44.716z M44.156,40.089l0.05,3.791l-0.01,0.004l-0.079-3.814L44.156,40.089z   M37.634,42.523l3.91,1.867c0.155,0.074,0.339,0.063,0.484-0.029c0.145-0.093,0.233-0.254,0.231-0.426l-0.048-5.536  c-0.002-0.194-0.116-0.37-0.292-0.451l-3.976-1.813c-0.157-0.071-0.338-0.057-0.482,0.037c-0.144,0.095-0.229,0.256-0.225,0.428  l0.114,5.482C37.354,42.271,37.464,42.442,37.634,42.523z M41.244,42.126l-1.891-0.896l-0.044-3.373l1.905,0.869L41.244,42.126z   M38.303,37.398l0.05,3.832l-0.021,0.01l-0.08-3.865L38.303,37.398z M31.487,39.333c0.002,0.068,0.017,0.137,0.049,0.203  c0.005,0.011,0.016,0.018,0.022,0.029c0.012,0.02,0.026,0.035,0.041,0.053c0.041,0.052,0.089,0.094,0.145,0.125  c0.012,0.007,0.018,0.02,0.03,0.026l3.757,1.752c0.155,0.072,0.336,0.06,0.48-0.031c0.144-0.092,0.231-0.251,0.231-0.422v-5.433  c0-0.194-0.113-0.372-0.289-0.453l-3.871-1.801c-0.156-0.073-0.34-0.06-0.484,0.034c-0.144,0.094-0.23,0.257-0.227,0.429  l0.114,5.482C31.485,39.328,31.487,39.331,31.487,39.333z M35.242,39.229l-1.615-0.766l-0.042-3.281l1.658,0.771V39.229z   M32.578,34.714l0.049,3.73l-0.158,0.077l-0.081-3.896L32.578,34.714z M26.14,37.385l3.759,1.684  c0.154,0.069,0.334,0.055,0.477-0.037c0.142-0.092,0.228-0.25,0.228-0.419v-0.89c0.014-0.021,0.033-0.036,0.044-0.059  c0.079-0.165,0.051-0.347-0.044-0.488v-4.128c0-0.198-0.116-0.377-0.297-0.457l-3.845-1.708c-0.156-0.069-0.336-0.054-0.479,0.04  c-0.142,0.094-0.227,0.254-0.224,0.425l0.086,5.59C25.847,37.131,25.962,37.306,26.14,37.385z M29.603,36.617l-1.458-0.691  l-0.043-3.22l1.501,0.667V36.617z M27.444,36.874l0.18-0.088l1.979,0.937v0.119L27.444,36.874z M27.096,32.258l0.049,3.648  l-0.313,0.154l-0.061-3.947L27.096,32.258z M19.784,34.087c0.01,0.021,0.029,0.035,0.042,0.054c0.018,0.034,0.042,0.06,0.068,0.088  c0.009,0.009,0.019,0.017,0.029,0.025c0.04,0.038,0.072,0.083,0.124,0.107l3.757,1.752c0.155,0.072,0.336,0.06,0.48-0.031  c0.144-0.092,0.231-0.251,0.231-0.422v-5.433c0-0.194-0.113-0.371-0.289-0.453l-3.871-1.801c-0.156-0.073-0.34-0.06-0.484,0.034  c-0.145,0.094-0.23,0.257-0.227,0.429l0.11,5.312C19.726,33.859,19.73,33.978,19.784,34.087z M23.514,33.792l-1.64-0.777  l-0.042-3.25l1.682,0.783V33.792z M20.825,29.296l0.049,3.7l-0.134,0.066l-0.08-3.843L20.825,29.296z M67.359,74.583  c0.145,0.087,0.325,0.095,0.477,0.021l3.75-1.829c0.173-0.084,0.282-0.261,0.28-0.454l-0.031-3.674  c-0.002-0.172-0.091-0.33-0.237-0.421c-0.146-0.09-0.327-0.1-0.481-0.024l-3.832,1.869c-0.178,0.086-0.287,0.268-0.281,0.465  l0.114,3.634C67.123,74.34,67.215,74.496,67.359,74.583z M70.863,72.015l-2.771,1.352l-0.08-2.539l2.829-1.379L70.863,72.015z   M71.621,75.603c-0.146-0.09-0.327-0.1-0.481-0.024l-3.831,1.868c-0.178,0.086-0.287,0.267-0.281,0.465l0.113,3.634  c0.006,0.168,0.097,0.325,0.241,0.413c0.145,0.087,0.326,0.095,0.478,0.021l3.751-1.829c0.174-0.084,0.283-0.261,0.281-0.454  l-0.033-3.673C71.856,75.851,71.768,75.693,71.621,75.603z M68.116,80.742l-0.079-2.539l2.828-1.379l0.023,2.566L68.116,80.742z   M90.291,84.863l-3.878,1.797c-0.176,0.081-0.288,0.256-0.29,0.449l-0.033,3.649c-0.002,0.17,0.084,0.33,0.227,0.423  c0.143,0.093,0.324,0.107,0.479,0.037l3.903-1.762c0.179-0.081,0.294-0.259,0.294-0.455l0.008-3.685c0-0.17-0.087-0.33-0.23-0.422  C90.627,84.803,90.445,84.791,90.291,84.863z M89.994,88.678l-2.897,1.308l0.023-2.551l2.879-1.334L89.994,88.678z M90.285,92.236  l-3.903,1.786c-0.176,0.08-0.288,0.253-0.292,0.446l-0.064,3.658c-0.003,0.172,0.083,0.334,0.228,0.428  c0.144,0.094,0.326,0.107,0.482,0.035l3.88-1.796c0.172-0.08,0.285-0.252,0.29-0.441l0.088-3.647  c0.004-0.172-0.081-0.335-0.225-0.43S90.441,92.165,90.285,92.236z M89.913,96.015l-2.874,1.331l0.045-2.545l2.89-1.322  L89.913,96.015z M86.723,105.923l3.838-1.781c0.175-0.081,0.288-0.258,0.289-0.45l0.02-3.574c0.001-0.169-0.083-0.327-0.224-0.42  c-0.142-0.093-0.319-0.109-0.475-0.042l-3.857,1.662c-0.183,0.078-0.302,0.26-0.302,0.459v3.694c0,0.171,0.087,0.33,0.23,0.422  C86.387,105.982,86.567,105.995,86.723,105.923z M89.852,103.368l-2.84,1.318v-2.582l2.854-1.229L89.852,103.368z M85.93,109.129  l-0.032,3.725c-0.002,0.172,0.087,0.334,0.231,0.426c0.146,0.093,0.33,0.104,0.485,0.029l3.842-1.844  c0.168-0.081,0.277-0.25,0.283-0.437l0.11-3.712c0.005-0.174-0.08-0.337-0.226-0.433c-0.145-0.096-0.328-0.108-0.486-0.035  l-3.92,1.831C86.043,108.762,85.932,108.936,85.93,109.129z M89.748,110.694l-2.844,1.365l0.022-2.606l2.899-1.354L89.748,110.694z   M70.912,93.831l-3.879,1.797c-0.176,0.081-0.288,0.256-0.29,0.449l-0.032,3.649c-0.002,0.17,0.084,0.33,0.227,0.423  c0.144,0.093,0.323,0.107,0.479,0.037l3.902-1.761c0.179-0.081,0.294-0.258,0.294-0.455l0.009-3.686c0-0.17-0.087-0.33-0.23-0.422  C71.248,93.771,71.066,93.759,70.912,93.831z M70.614,97.646l-2.896,1.307l0.022-2.551l2.88-1.334L70.614,97.646z M70.905,101.204  l-3.902,1.785c-0.176,0.081-0.288,0.253-0.292,0.446l-0.064,3.658c-0.003,0.172,0.083,0.334,0.227,0.428  c0.145,0.094,0.327,0.107,0.483,0.035l3.88-1.796c0.172-0.08,0.285-0.253,0.29-0.442l0.087-3.647  c0.004-0.172-0.081-0.334-0.225-0.429C71.245,101.146,71.062,101.133,70.905,101.204z M70.534,104.983l-2.874,1.33l0.045-2.545  l2.89-1.322L70.534,104.983z M67.343,114.891l3.838-1.78c0.177-0.081,0.289-0.256,0.29-0.45l0.019-3.575  c0.001-0.169-0.083-0.327-0.225-0.42c-0.141-0.093-0.318-0.109-0.474-0.042l-3.856,1.663c-0.183,0.079-0.302,0.26-0.302,0.459v3.692  c0,0.171,0.087,0.33,0.23,0.422C67.008,114.95,67.188,114.963,67.343,114.891z M70.473,112.337l-2.84,1.317v-2.58l2.853-1.23  L70.473,112.337z M67.233,122.275l3.843-1.842c0.169-0.081,0.278-0.25,0.284-0.437l0.11-3.715c0.005-0.174-0.08-0.337-0.226-0.433  c-0.145-0.096-0.328-0.108-0.486-0.035l-3.92,1.831c-0.175,0.082-0.286,0.256-0.288,0.448l-0.033,3.726  c-0.002,0.173,0.087,0.334,0.231,0.427C66.895,122.339,67.078,122.35,67.233,122.275z M70.369,119.663l-2.845,1.363l0.023-2.607  l2.899-1.354L70.369,119.663z M84.142,87.917l-3.879,1.797c-0.175,0.081-0.288,0.256-0.29,0.449l-0.032,3.649  c-0.002,0.17,0.084,0.33,0.227,0.423c0.144,0.093,0.323,0.107,0.479,0.037l3.903-1.761c0.178-0.081,0.294-0.258,0.294-0.455  l0.008-3.686c0-0.17-0.087-0.33-0.23-0.422C84.478,87.858,84.296,87.846,84.142,87.917z M83.845,91.733l-2.897,1.307l0.022-2.551  l2.88-1.334L83.845,91.733z M84.136,95.292l-3.903,1.786c-0.176,0.08-0.288,0.253-0.292,0.446l-0.064,3.658  c-0.003,0.172,0.083,0.334,0.228,0.428c0.144,0.094,0.326,0.107,0.482,0.035l3.88-1.797c0.172-0.08,0.285-0.252,0.29-0.441  l0.088-3.647c0.004-0.172-0.081-0.335-0.225-0.43S84.292,95.22,84.136,95.292z M83.764,99.07L80.89,100.4l0.045-2.545l2.89-1.322  L83.764,99.07z M84.719,103.172c0.001-0.169-0.083-0.327-0.224-0.42c-0.142-0.093-0.319-0.109-0.475-0.042l-3.856,1.661  c-0.183,0.078-0.302,0.26-0.302,0.459v3.694c0,0.171,0.087,0.33,0.23,0.421c0.145,0.092,0.325,0.104,0.479,0.033l3.838-1.779  c0.177-0.082,0.289-0.257,0.29-0.451L84.719,103.172z M83.702,106.425l-2.84,1.316v-2.582l2.853-1.229L83.702,106.425z   M83.988,109.902l-3.92,1.832c-0.175,0.082-0.286,0.256-0.288,0.449l-0.032,3.723c-0.002,0.172,0.087,0.334,0.231,0.426  c0.146,0.093,0.329,0.104,0.484,0.029l3.842-1.841c0.169-0.081,0.278-0.25,0.284-0.437l0.11-3.714  c0.005-0.174-0.08-0.337-0.226-0.433C84.33,109.842,84.146,109.829,83.988,109.902z M83.599,113.75l-2.844,1.363l0.022-2.606  l2.899-1.354L83.599,113.75z M77.672,90.704l-3.879,1.797c-0.176,0.081-0.288,0.256-0.29,0.449l-0.031,3.649  c-0.001,0.17,0.084,0.33,0.227,0.423c0.144,0.093,0.323,0.107,0.479,0.037l3.902-1.761c0.179-0.081,0.294-0.258,0.294-0.455  l0.008-3.686c0-0.17-0.087-0.33-0.23-0.422C78.008,90.644,77.826,90.632,77.672,90.704z M77.375,94.52l-2.896,1.307l0.021-2.551  l2.88-1.334L77.375,94.52z M77.666,98.078l-3.902,1.786c-0.176,0.08-0.288,0.253-0.292,0.446l-0.064,3.658  c-0.003,0.172,0.083,0.334,0.228,0.428c0.144,0.094,0.326,0.107,0.482,0.035l3.88-1.798c0.173-0.08,0.285-0.253,0.29-0.442  l0.087-3.646c0.004-0.172-0.081-0.334-0.225-0.429S77.822,98.006,77.666,98.078z M77.295,101.855l-2.874,1.332l0.045-2.546  l2.89-1.322L77.295,101.855z M78.249,105.958c0.001-0.169-0.083-0.327-0.224-0.42c-0.142-0.093-0.319-0.109-0.475-0.042  l-3.856,1.662c-0.183,0.078-0.302,0.26-0.302,0.459v3.693c0,0.171,0.087,0.33,0.23,0.422c0.145,0.091,0.325,0.104,0.479,0.031  l3.838-1.78c0.177-0.081,0.289-0.256,0.29-0.45L78.249,105.958z M77.232,109.21l-2.84,1.317v-2.581l2.853-1.229L77.232,109.21z   M77.519,112.69l-3.92,1.83c-0.175,0.082-0.286,0.256-0.288,0.449l-0.032,3.723c-0.002,0.172,0.087,0.334,0.231,0.426  c0.146,0.093,0.329,0.104,0.484,0.029l3.842-1.842c0.169-0.081,0.278-0.25,0.284-0.437l0.11-3.711  c0.005-0.174-0.08-0.337-0.226-0.433C77.86,112.63,77.677,112.617,77.519,112.69z M77.129,116.535l-2.844,1.363l0.022-2.604  l2.899-1.354L77.129,116.535z M90.187,114.278l-3.879,1.796c-0.175,0.081-0.288,0.257-0.29,0.449l-0.033,3.649  c-0.002,0.171,0.084,0.33,0.227,0.424c0.143,0.093,0.324,0.106,0.479,0.037l3.903-1.762c0.179-0.081,0.293-0.259,0.294-0.455  l0.009-3.684c0-0.17-0.087-0.33-0.23-0.422S90.341,114.207,90.187,114.278z M89.889,118.093l-2.897,1.308l0.023-2.551l2.88-1.334  L89.889,118.093z M90.18,121.65l-3.903,1.787c-0.176,0.081-0.289,0.254-0.292,0.446l-0.063,3.658  c-0.003,0.172,0.083,0.334,0.228,0.428c0.144,0.094,0.326,0.107,0.482,0.035l3.88-1.798c0.173-0.08,0.285-0.253,0.29-0.442  l0.087-3.647c0.004-0.172-0.081-0.335-0.225-0.43S90.336,121.579,90.18,121.65z M89.809,125.43l-2.874,1.332l0.044-2.545  l2.891-1.324L89.809,125.43z M90.065,129.07l-3.856,1.662c-0.183,0.078-0.302,0.26-0.302,0.459v3.693c0,0.171,0.087,0.33,0.23,0.422  c0.145,0.091,0.325,0.104,0.479,0.031l3.838-1.78c0.177-0.081,0.289-0.256,0.29-0.45l0.019-3.575  c0.001-0.169-0.083-0.327-0.224-0.42C90.398,129.02,90.221,129.003,90.065,129.07z M89.747,132.784l-2.84,1.317v-2.581l2.853-1.229  L89.747,132.784z M90.033,136.263l-3.92,1.831c-0.175,0.082-0.286,0.256-0.288,0.448l-0.033,3.726  c-0.002,0.173,0.087,0.335,0.231,0.427c0.146,0.093,0.33,0.104,0.485,0.029l3.842-1.844c0.168-0.081,0.277-0.25,0.283-0.437  l0.111-3.713c0.005-0.174-0.08-0.337-0.226-0.433C90.375,136.202,90.191,136.189,90.033,136.263z M89.644,140.109l-2.845,1.365  l0.023-2.607l2.898-1.354L89.644,140.109z M70.807,123.247l-3.88,1.795c-0.175,0.081-0.288,0.257-0.29,0.45l-0.031,3.649  c-0.002,0.17,0.084,0.33,0.227,0.423c0.144,0.093,0.324,0.106,0.479,0.037l3.903-1.762c0.179-0.081,0.294-0.259,0.294-0.455  l0.008-3.683c0-0.171-0.087-0.33-0.23-0.422S70.961,123.176,70.807,123.247z M70.51,127.061l-2.897,1.308l0.021-2.551l2.881-1.333  L70.51,127.061z M70.801,130.618l-3.903,1.787c-0.176,0.081-0.288,0.253-0.292,0.446l-0.064,3.658  c-0.003,0.172,0.083,0.334,0.228,0.428c0.144,0.094,0.326,0.107,0.482,0.035l3.88-1.798c0.173-0.08,0.285-0.252,0.29-0.442  l0.088-3.647c0.004-0.172-0.081-0.335-0.225-0.429C71.141,130.561,70.957,130.547,70.801,130.618z M70.429,134.397l-2.874,1.332  l0.045-2.546l2.89-1.323L70.429,134.397z M70.687,138.04l-3.856,1.66c-0.184,0.078-0.303,0.26-0.303,0.459v3.693  c0,0.171,0.087,0.33,0.23,0.422c0.145,0.091,0.325,0.104,0.479,0.031l3.838-1.78c0.177-0.081,0.289-0.256,0.29-0.45l0.019-3.573  c0.001-0.169-0.083-0.326-0.224-0.42C71.019,137.989,70.841,137.973,70.687,138.04z M70.367,141.752l-2.84,1.317v-2.581l2.853-1.228  L70.367,141.752z M70.653,145.23l-3.92,1.831c-0.175,0.082-0.286,0.256-0.288,0.449l-0.032,3.726  c-0.002,0.172,0.087,0.334,0.231,0.426c0.146,0.093,0.329,0.104,0.484,0.029l3.842-1.842c0.169-0.081,0.278-0.25,0.284-0.437  l0.11-3.715c0.005-0.174-0.08-0.337-0.226-0.433C70.995,145.17,70.812,145.157,70.653,145.23z M70.264,149.079l-2.844,1.363  l0.022-2.607l2.899-1.354L70.264,149.079z M84.036,117.333l-3.88,1.797c-0.175,0.081-0.288,0.257-0.29,0.45l-0.031,3.65  c-0.001,0.17,0.084,0.33,0.227,0.423c0.144,0.093,0.323,0.106,0.479,0.037l3.903-1.762c0.179-0.081,0.294-0.259,0.294-0.455  l0.008-3.686c0-0.171-0.087-0.33-0.23-0.422S84.19,117.262,84.036,117.333z M83.739,121.149l-2.897,1.308l0.021-2.552l2.881-1.335  L83.739,121.149z M84.03,124.707l-3.903,1.784c-0.176,0.08-0.288,0.253-0.292,0.446l-0.064,3.66  c-0.003,0.172,0.083,0.334,0.228,0.428c0.144,0.094,0.326,0.107,0.482,0.035l3.88-1.798c0.173-0.08,0.285-0.252,0.29-0.442  l0.088-3.646c0.004-0.172-0.081-0.334-0.225-0.429S84.187,124.636,84.03,124.707z M83.658,128.485l-2.874,1.332l0.045-2.547  l2.89-1.321L83.658,128.485z M83.916,132.126l-3.857,1.662c-0.183,0.078-0.302,0.26-0.302,0.459v3.691  c0,0.171,0.087,0.329,0.23,0.421s0.325,0.104,0.479,0.033l3.838-1.778c0.177-0.082,0.289-0.257,0.29-0.451l0.02-3.575  c0.001-0.169-0.083-0.327-0.224-0.42C84.249,132.075,84.071,132.059,83.916,132.126z M83.597,135.84l-2.84,1.315v-2.579l2.854-1.229  L83.597,135.84z M83.883,139.319l-3.92,1.831c-0.175,0.082-0.286,0.256-0.288,0.449l-0.032,3.723  c-0.002,0.172,0.087,0.334,0.231,0.426c0.146,0.093,0.329,0.104,0.484,0.029l3.842-1.842c0.169-0.081,0.278-0.25,0.284-0.437  l0.11-3.712c0.005-0.174-0.08-0.337-0.226-0.433C84.225,139.259,84.041,139.246,83.883,139.319z M83.493,143.165l-2.844,1.363  l0.022-2.604l2.898-1.354L83.493,143.165z M77.567,120.119l-3.879,1.798c-0.176,0.082-0.288,0.257-0.29,0.449l-0.032,3.647  c-0.002,0.171,0.084,0.33,0.227,0.424c0.143,0.093,0.323,0.106,0.479,0.037l3.902-1.76c0.179-0.081,0.294-0.259,0.295-0.455  l0.009-3.686c0-0.17-0.087-0.33-0.23-0.422S77.722,120.048,77.567,120.119z M77.27,123.936l-2.896,1.306l0.022-2.55l2.88-1.335  L77.27,123.936z M77.561,127.493l-3.902,1.785c-0.176,0.081-0.289,0.254-0.292,0.446l-0.063,3.657  c-0.003,0.172,0.083,0.334,0.228,0.428c0.144,0.094,0.326,0.107,0.482,0.035l3.878-1.797c0.173-0.08,0.285-0.252,0.29-0.442  l0.088-3.646c0.004-0.172-0.081-0.334-0.225-0.429C77.9,127.436,77.717,127.422,77.561,127.493z M77.188,131.271l-2.872,1.331  l0.044-2.544l2.889-1.322L77.188,131.271z M77.446,134.912l-3.857,1.661c-0.183,0.078-0.302,0.26-0.302,0.459v3.693  c0,0.171,0.087,0.33,0.23,0.422c0.145,0.091,0.325,0.104,0.479,0.031l3.838-1.78c0.177-0.081,0.289-0.256,0.29-0.45l0.02-3.574  c0.001-0.169-0.083-0.326-0.224-0.42C77.779,134.861,77.602,134.845,77.446,134.912z M77.127,138.625l-2.84,1.317v-2.581  l2.854-1.229L77.127,138.625z M77.413,142.105l-3.92,1.831c-0.175,0.082-0.286,0.256-0.288,0.449l-0.032,3.723  c-0.002,0.172,0.087,0.333,0.231,0.426c0.146,0.093,0.329,0.104,0.484,0.029l3.842-1.841c0.169-0.081,0.278-0.25,0.284-0.437  l0.11-3.713c0.005-0.174-0.08-0.337-0.226-0.433C77.755,142.045,77.571,142.032,77.413,142.105z M77.023,145.952l-2.844,1.362  l0.022-2.604l2.899-1.354L77.023,145.952z M89.814,143.7l-3.879,1.797c-0.175,0.081-0.288,0.257-0.29,0.449l-0.032,3.647  c-0.002,0.171,0.084,0.33,0.227,0.424c0.143,0.093,0.323,0.106,0.479,0.037l3.903-1.76c0.179-0.081,0.295-0.259,0.295-0.455  l0.008-3.685c0-0.171-0.087-0.33-0.23-0.422S89.969,143.629,89.814,143.7z M89.518,147.516l-2.897,1.306l0.022-2.549l2.88-1.335  L89.518,147.516z M89.809,151.073l-3.903,1.785c-0.176,0.081-0.288,0.253-0.292,0.446l-0.064,3.657  c-0.003,0.172,0.083,0.334,0.227,0.428c0.145,0.094,0.327,0.107,0.483,0.035l3.88-1.795c0.172-0.08,0.285-0.252,0.29-0.442  l0.088-3.647c0.004-0.172-0.081-0.334-0.225-0.429C90.148,151.016,89.965,151.002,89.809,151.073z M89.437,154.853l-2.874,1.329  l0.045-2.544l2.89-1.322L89.437,154.853z M89.694,158.492l-3.857,1.661c-0.183,0.078-0.302,0.26-0.302,0.459v3.693  c0,0.171,0.087,0.33,0.23,0.422c0.145,0.091,0.325,0.104,0.479,0.031l3.838-1.78c0.177-0.081,0.289-0.256,0.29-0.45l0.02-3.574  c0.001-0.169-0.083-0.326-0.224-0.42C90.027,158.441,89.85,158.425,89.694,158.492z M89.375,162.205l-2.84,1.317v-2.581l2.854-1.229  L89.375,162.205z M70.436,152.668l-3.879,1.797c-0.175,0.081-0.288,0.257-0.29,0.449l-0.032,3.647  c-0.002,0.171,0.084,0.33,0.227,0.424c0.143,0.093,0.323,0.106,0.479,0.037l3.902-1.76c0.179-0.081,0.295-0.259,0.295-0.455  l0.009-3.685c0-0.17-0.087-0.33-0.23-0.422S70.59,152.597,70.436,152.668z M70.138,156.483l-2.896,1.306l0.022-2.549l2.88-1.335  L70.138,156.483z M70.429,160.041l-3.902,1.785c-0.176,0.081-0.288,0.253-0.292,0.446l-0.064,3.657  c-0.003,0.172,0.083,0.334,0.227,0.428c0.145,0.094,0.327,0.107,0.483,0.035l3.88-1.795c0.174-0.081,0.285-0.251,0.29-0.442  l0.087-3.647c0.004-0.172-0.081-0.334-0.225-0.43C70.769,159.984,70.585,159.97,70.429,160.041z M70.058,163.82l-2.874,1.329  l0.045-2.544l2.89-1.322L70.058,163.82z M70.314,167.46l-3.856,1.661c-0.183,0.078-0.302,0.26-0.302,0.459v3.693  c0,0.171,0.087,0.33,0.23,0.422c0.145,0.091,0.325,0.104,0.479,0.031l3.838-1.78c0.177-0.081,0.289-0.256,0.29-0.45l0.019-3.574  c0.001-0.169-0.083-0.327-0.224-0.42C70.647,167.409,70.47,167.393,70.314,167.46z M69.996,171.173l-2.84,1.317v-2.581l2.853-1.229  L69.996,171.173z M83.665,146.754l-3.879,1.797c-0.175,0.081-0.288,0.257-0.29,0.449l-0.032,3.649  c-0.002,0.171,0.084,0.331,0.227,0.424c0.144,0.093,0.324,0.106,0.479,0.037l3.902-1.762c0.179-0.081,0.293-0.259,0.294-0.455  l0.009-3.685c0-0.17-0.087-0.33-0.23-0.422S83.819,146.683,83.665,146.754z M83.367,150.569l-2.896,1.308l0.022-2.551l2.88-1.335  L83.367,150.569z M83.658,154.127l-3.902,1.787c-0.176,0.081-0.288,0.253-0.292,0.446l-0.064,3.658  c-0.003,0.172,0.083,0.334,0.228,0.428c0.144,0.094,0.326,0.107,0.482,0.035l3.88-1.798c0.173-0.08,0.285-0.253,0.29-0.442  l0.087-3.647c0.004-0.172-0.081-0.335-0.225-0.43S83.814,154.056,83.658,154.127z M83.287,157.906l-2.874,1.332l0.045-2.545  l2.89-1.324L83.287,157.906z M83.544,161.546l-3.856,1.663c-0.183,0.079-0.302,0.26-0.302,0.459v3.693  c0,0.171,0.087,0.33,0.23,0.422c0.145,0.091,0.325,0.104,0.479,0.031l3.838-1.78c0.177-0.081,0.289-0.256,0.29-0.45l0.019-3.576  c0.001-0.169-0.083-0.327-0.225-0.42C83.877,161.495,83.699,161.479,83.544,161.546z M83.226,165.261l-2.84,1.317v-2.581l2.853-1.23  L83.226,165.261z M77.195,149.54l-3.879,1.798c-0.176,0.082-0.288,0.257-0.29,0.45l-0.031,3.649c-0.001,0.17,0.084,0.33,0.227,0.423  c0.144,0.093,0.324,0.106,0.479,0.037l3.901-1.762c0.179-0.081,0.294-0.259,0.294-0.455l0.009-3.686c0-0.17-0.087-0.33-0.23-0.422  S77.35,149.469,77.195,149.54z M76.897,153.356l-2.896,1.308l0.021-2.551l2.88-1.336L76.897,153.356z M77.188,156.914l-3.901,1.786  c-0.176,0.081-0.288,0.253-0.292,0.446l-0.064,3.658c-0.003,0.172,0.083,0.334,0.228,0.428c0.144,0.094,0.326,0.107,0.482,0.035  l3.88-1.797c0.172-0.08,0.285-0.253,0.29-0.442l0.086-3.647c0.004-0.172-0.081-0.335-0.225-0.43  C77.527,156.856,77.345,156.843,77.188,156.914z M76.818,160.693l-2.874,1.331l0.045-2.545l2.889-1.323L76.818,160.693z   M77.074,164.333l-3.856,1.662c-0.183,0.078-0.302,0.26-0.302,0.459v3.692c0,0.171,0.087,0.33,0.23,0.422  c0.145,0.091,0.325,0.104,0.479,0.031l3.838-1.779c0.177-0.081,0.289-0.256,0.29-0.45l0.019-3.575  c0.001-0.169-0.083-0.327-0.224-0.42C77.407,164.282,77.229,164.266,77.074,164.333z M76.756,168.047l-2.84,1.316v-2.58l2.853-1.229  L76.756,168.047z M81.704,85.979l-0.036-7.295c-0.001-0.172-0.09-0.332-0.236-0.422s-0.328-0.1-0.483-0.024l-3.83,1.869  c-0.174,0.085-0.283,0.263-0.28,0.457l0.116,7.255c0.003,0.17,0.093,0.329,0.238,0.418c0.146,0.089,0.328,0.098,0.48,0.023  l3.75-1.829C81.596,86.347,81.705,86.17,81.704,85.979z M77.941,87.016l-0.099-6.152l2.829-1.38l0.03,6.185L77.941,87.016z   M75.947,88.659l-0.015-7.195c0-0.172-0.088-0.33-0.233-0.422s-0.326-0.103-0.481-0.029l-7.792,3.706  c-0.177,0.084-0.288,0.262-0.285,0.458l0.096,7.155c0.002,0.17,0.091,0.328,0.235,0.417c0.146,0.09,0.325,0.101,0.479,0.027  l7.711-3.666C75.836,89.029,75.947,88.852,75.947,88.659z M68.226,91.54l-0.081-6.055l6.79-3.229l0.012,6.089L68.226,91.54z   M90.938,73.72c-0.146-0.092-0.326-0.103-0.481-0.029l-7.792,3.706c-0.177,0.084-0.288,0.262-0.285,0.458l0.097,7.155  c0.002,0.17,0.091,0.328,0.235,0.417c0.146,0.09,0.325,0.101,0.479,0.027l7.71-3.666c0.174-0.083,0.285-0.26,0.285-0.453  l-0.015-7.195C91.172,73.969,91.084,73.812,90.938,73.72z M83.466,84.217l-0.082-6.055l6.79-3.229l0.012,6.089L83.466,84.217z   M90.955,59.229c-0.144-0.091-0.325-0.104-0.479-0.031l-3.794,1.769c-0.173,0.08-0.283,0.249-0.289,0.438l-0.109,3.71  c-0.005,0.174,0.08,0.337,0.226,0.432c0.145,0.096,0.328,0.109,0.485,0.036l3.908-1.822c0.177-0.082,0.289-0.259,0.289-0.454  l-0.005-3.657C91.187,59.479,91.099,59.32,90.955,59.229z M87.307,64.334l0.077-2.591l2.804-1.308l0.004,2.554L87.307,64.334z   M86.994,72.901l3.863-1.802c0.177-0.082,0.289-0.259,0.289-0.453v-3.659c0-0.172-0.088-0.331-0.233-0.423s-0.326-0.103-0.481-0.028  l-3.857,1.84c-0.175,0.083-0.285,0.257-0.285,0.45l-0.006,3.621c0,0.17,0.087,0.331,0.231,0.422  C86.658,72.961,86.84,72.973,86.994,72.901z M90.146,70.328l-2.862,1.334l0.004-2.52l2.858-1.363V70.328z M72.65,71.698l0.037,7.31  c0.001,0.174,0.092,0.334,0.24,0.425s0.332,0.097,0.487,0.018l5.833-2.979l5.842-2.693c0.177-0.082,0.291-0.259,0.291-0.453  l0.017-7.431c0.001-0.027,0.003-0.053,0-0.081l0.008-3.684c0-0.172-0.088-0.332-0.233-0.424s-0.327-0.103-0.482-0.028l-5.855,2.803  c-0.001,0-0.001,0.001-0.002,0.002s-0.002,0-0.003,0l-5.919,2.917c-0.172,0.085-0.28,0.26-0.279,0.451l0.019,3.648  C72.636,71.565,72.637,71.631,72.65,71.698z M84.39,69.162l-4.854,2.417l0.006-2.542l4.854-2.363L84.39,69.162z M78.534,72.077  l-4.869,2.424l-0.014-2.599l4.889-2.379L78.534,72.077z M73.671,75.616l4.86-2.42l-0.005,2.521l-4.843,2.473L73.671,75.616z   M79.527,75.242l0.006-2.545l4.854-2.417l-0.006,2.724L79.527,75.242z M84.397,65.56l-4.854,2.362l0.006-2.674l4.854-2.324  L84.397,65.56z M78.542,68.41l-4.896,2.383l-0.013-2.633l4.915-2.422L78.542,68.41z M42.418,65.049l3.861,1.883  c0.155,0.076,0.336,0.066,0.482-0.024c0.146-0.091,0.235-0.249,0.237-0.421l0.064-7.347c0.001-0.193-0.107-0.369-0.281-0.454  l-3.861-1.883c-0.155-0.076-0.336-0.066-0.482,0.024c-0.146,0.091-0.235,0.249-0.237,0.421l-0.063,7.348  C42.136,64.788,42.245,64.964,42.418,65.049z M43.194,58.049l2.865,1.397l-0.054,6.239l-2.865-1.397L43.194,58.049z M39.073,55.005  l-3.862-1.883c-0.155-0.076-0.336-0.066-0.482,0.024c-0.146,0.091-0.235,0.249-0.237,0.421l-0.063,7.348  c-0.001,0.193,0.107,0.369,0.281,0.454l3.861,1.883c0.155,0.076,0.336,0.066,0.482-0.024c0.146-0.091,0.235-0.249,0.237-0.421  l0.064-7.348C39.355,55.266,39.246,55.09,39.073,55.005z M35.431,60.608l0.054-6.24l2.866,1.397l-0.054,6.24L35.431,60.608z   M31.361,51.165l-3.809-1.857c-0.155-0.076-0.336-0.066-0.483,0.024c-0.146,0.09-0.235,0.249-0.236,0.421l-0.052,7.314  c-0.001,0.193,0.107,0.368,0.281,0.453l3.861,1.883c0.155,0.076,0.338,0.066,0.484-0.025c0.146-0.091,0.235-0.251,0.235-0.424v-7.34  C31.642,51.423,31.533,51.249,31.361,51.165z M27.783,56.76l0.044-6.206l2.814,1.373v6.228L27.783,56.76z M23.711,47.468  l-3.861-1.917c-0.154-0.077-0.337-0.068-0.484,0.021c-0.146,0.09-0.237,0.25-0.238,0.422l-0.063,7.348  c-0.001,0.193,0.107,0.369,0.281,0.454l3.86,1.883c0.155,0.076,0.336,0.066,0.482-0.024c0.146-0.091,0.235-0.249,0.237-0.421  l0.064-7.313C23.991,47.729,23.883,47.553,23.711,47.468z M20.067,53.036l0.054-6.233l2.865,1.422l-0.055,6.208L20.067,53.036z   M16.041,43.693l-3.843-1.874c-0.155-0.076-0.336-0.066-0.482,0.024c-0.146,0.091-0.235,0.249-0.237,0.421l-0.064,7.348  c-0.001,0.193,0.107,0.369,0.281,0.454l3.862,1.884c0.155,0.076,0.336,0.066,0.483-0.024s0.235-0.25,0.236-0.422l0.044-7.357  C16.322,43.952,16.214,43.777,16.041,43.693z M12.417,49.305l0.054-6.24l2.848,1.389l-0.038,6.248L12.417,49.305z M46.781,69.961  l-3.861-1.884c-0.155-0.076-0.336-0.066-0.482,0.024c-0.146,0.091-0.235,0.249-0.237,0.421l-0.063,7.348  c-0.001,0.193,0.107,0.369,0.281,0.454l3.861,1.883c0.155,0.076,0.336,0.066,0.482-0.024c0.146-0.091,0.235-0.249,0.237-0.421  l0.064-7.347C47.063,70.222,46.955,70.045,46.781,69.961z M43.14,75.563l0.054-6.24l2.865,1.398l-0.054,6.239L43.14,75.563z   M39.073,66.28l-3.862-1.883c-0.155-0.076-0.336-0.066-0.482,0.024c-0.146,0.091-0.235,0.249-0.237,0.421l-0.063,7.348  c-0.001,0.193,0.107,0.369,0.281,0.454l3.861,1.883c0.155,0.076,0.336,0.066,0.482-0.024c0.146-0.091,0.235-0.249,0.237-0.421  l0.064-7.348C39.355,66.541,39.246,66.364,39.073,66.28z M35.431,71.882l0.054-6.24l2.866,1.397l-0.054,6.24L35.431,71.882z   M31.361,62.439l-3.809-1.857c-0.155-0.076-0.336-0.066-0.483,0.024c-0.146,0.09-0.235,0.249-0.236,0.421l-0.052,7.314  c-0.001,0.193,0.107,0.368,0.281,0.453l3.861,1.883c0.155,0.076,0.338,0.066,0.484-0.025c0.146-0.091,0.235-0.252,0.235-0.424v-7.34  C31.642,62.697,31.533,62.523,31.361,62.439z M27.783,68.034l0.044-6.206l2.814,1.373v6.227L27.783,68.034z M23.711,58.743  l-3.861-1.917c-0.154-0.077-0.337-0.068-0.484,0.021c-0.146,0.09-0.237,0.25-0.238,0.422l-0.063,7.348  c-0.001,0.193,0.107,0.369,0.281,0.454l3.86,1.883c0.155,0.076,0.336,0.066,0.482-0.024c0.146-0.091,0.235-0.249,0.237-0.421  l0.064-7.313C23.991,59.003,23.883,58.828,23.711,58.743z M20.067,64.31l0.054-6.233l2.865,1.422l-0.055,6.208L20.067,64.31z   M16.041,54.967l-3.843-1.875c-0.155-0.076-0.336-0.066-0.482,0.024c-0.146,0.091-0.235,0.249-0.237,0.421l-0.064,7.348  c-0.001,0.193,0.107,0.369,0.281,0.454l3.862,1.883c0.155,0.076,0.337,0.066,0.483-0.024c0.146-0.091,0.235-0.25,0.236-0.422  l0.044-7.357C16.322,55.227,16.214,55.052,16.041,54.967z M12.417,60.579l0.054-6.24l2.848,1.389l-0.038,6.248L12.417,60.579z   M46.45,80.903l-3.862-1.883c-0.155-0.076-0.336-0.066-0.482,0.024c-0.146,0.091-0.235,0.249-0.237,0.421l-0.063,7.348  c-0.001,0.193,0.107,0.369,0.281,0.454l3.861,1.883c0.155,0.076,0.336,0.066,0.482-0.024c0.146-0.091,0.235-0.249,0.237-0.421  l0.064-7.348C46.732,81.164,46.623,80.988,46.45,80.903z M42.808,86.506l0.054-6.24l2.866,1.397l-0.054,6.24L42.808,86.506z   M38.741,77.223l-3.861-1.884c-0.155-0.076-0.336-0.066-0.482,0.024c-0.146,0.091-0.235,0.249-0.237,0.421l-0.064,7.348  c-0.001,0.193,0.107,0.369,0.281,0.454l3.861,1.883c0.155,0.076,0.336,0.066,0.482-0.024c0.146-0.091,0.235-0.249,0.237-0.421  l0.064-7.347C39.023,77.483,38.915,77.307,38.741,77.223z M35.1,82.825l0.054-6.24l2.865,1.398l-0.055,6.239L35.1,82.825z   M31.029,73.382l-3.808-1.857c-0.155-0.076-0.336-0.066-0.483,0.024c-0.146,0.09-0.235,0.249-0.236,0.421l-0.053,7.314  c-0.001,0.193,0.107,0.368,0.281,0.453l3.861,1.883c0.155,0.076,0.338,0.066,0.484-0.025c0.146-0.091,0.235-0.251,0.235-0.424v-7.34  C31.31,73.64,31.201,73.466,31.029,73.382z M27.452,78.977l0.044-6.205l2.814,1.373v6.227L27.452,78.977z M23.38,69.686  l-3.861-1.917c-0.154-0.077-0.337-0.068-0.484,0.021c-0.146,0.09-0.237,0.25-0.238,0.422l-0.064,7.348  c-0.001,0.193,0.107,0.369,0.281,0.454l3.86,1.883c0.155,0.076,0.336,0.066,0.482-0.024c0.146-0.091,0.235-0.249,0.237-0.421  l0.064-7.313C23.659,69.946,23.551,69.771,23.38,69.686z M19.736,75.252l0.054-6.233l2.865,1.423L22.6,76.65L19.736,75.252z   M15.709,65.91l-3.843-1.874c-0.155-0.076-0.336-0.066-0.482,0.024c-0.146,0.091-0.235,0.249-0.237,0.421l-0.064,7.348  c-0.001,0.193,0.107,0.369,0.281,0.454l3.862,1.884c0.155,0.076,0.336,0.066,0.483-0.024s0.235-0.25,0.236-0.422l0.044-7.357  C15.991,66.169,15.882,65.994,15.709,65.91z M12.086,71.521l0.054-6.24l2.848,1.389l-0.038,6.248L12.086,71.521z M46.45,91.846  l-3.862-1.884c-0.155-0.076-0.336-0.066-0.482,0.024c-0.146,0.091-0.235,0.249-0.237,0.421l-0.063,7.349  c-0.001,0.193,0.107,0.369,0.281,0.454l3.861,1.882c0.155,0.076,0.336,0.066,0.482-0.024c0.146-0.091,0.235-0.249,0.237-0.421  L46.73,92.3C46.732,92.107,46.623,91.931,46.45,91.846z M42.808,97.449l0.054-6.241l2.866,1.398l-0.054,6.239L42.808,97.449z   M38.741,88.165l-3.861-1.883c-0.155-0.076-0.336-0.066-0.482,0.024c-0.146,0.091-0.235,0.249-0.237,0.421l-0.064,7.348  c-0.001,0.193,0.107,0.369,0.281,0.454l3.861,1.883c0.155,0.076,0.336,0.066,0.482-0.024c0.146-0.091,0.235-0.249,0.237-0.421  l0.064-7.348C39.023,88.426,38.915,88.25,38.741,88.165z M35.1,93.768l0.054-6.24l2.865,1.397l-0.055,6.24L35.1,93.768z   M31.029,84.325l-3.808-1.858c-0.155-0.076-0.336-0.066-0.482,0.024c-0.146,0.09-0.235,0.249-0.237,0.421l-0.053,7.315  c-0.001,0.193,0.107,0.368,0.281,0.453l3.861,1.883c0.155,0.076,0.338,0.066,0.484-0.025c0.146-0.091,0.235-0.252,0.235-0.424v-7.34  C31.31,84.583,31.201,84.409,31.029,84.325z M27.452,89.92l0.044-6.206l2.814,1.373v6.227L27.452,89.92z M23.38,80.628l-3.861-1.917  c-0.154-0.077-0.337-0.068-0.484,0.021c-0.146,0.09-0.237,0.25-0.238,0.422l-0.064,7.348c-0.001,0.193,0.107,0.369,0.281,0.454  l3.86,1.882c0.155,0.076,0.336,0.066,0.482-0.024c0.146-0.091,0.235-0.249,0.237-0.421l0.064-7.313  C23.659,80.889,23.551,80.713,23.38,80.628z M19.736,86.196l0.054-6.234l2.865,1.423L22.6,87.592L19.736,86.196z M15.709,76.853  l-3.843-1.875c-0.155-0.076-0.336-0.066-0.482,0.024c-0.146,0.091-0.235,0.249-0.237,0.421l-0.064,7.348  c-0.001,0.193,0.107,0.369,0.281,0.454l3.862,1.884c0.155,0.076,0.336,0.066,0.483-0.024s0.235-0.25,0.236-0.422l0.044-7.357  C15.991,77.112,15.882,76.938,15.709,76.853z M12.086,82.464l0.054-6.24l2.848,1.389l-0.038,6.248L12.086,82.464z M46.45,102.789  l-3.862-1.884c-0.155-0.076-0.336-0.066-0.482,0.024s-0.235,0.249-0.237,0.421l-0.063,7.349c-0.001,0.192,0.107,0.369,0.281,0.453  l3.861,1.882c0.155,0.075,0.336,0.066,0.482-0.024c0.146-0.09,0.235-0.248,0.237-0.421l0.064-7.347  C46.732,103.05,46.623,102.873,46.45,102.789z M42.809,108.392l0.053-6.24l2.866,1.397l-0.054,6.239L42.809,108.392z M38.741,99.108  l-3.861-1.884c-0.155-0.076-0.336-0.066-0.482,0.024c-0.146,0.091-0.235,0.249-0.237,0.421l-0.064,7.349  c-0.001,0.192,0.107,0.369,0.281,0.453l3.861,1.882c0.155,0.075,0.336,0.066,0.482-0.024c0.146-0.09,0.235-0.248,0.237-0.421  l0.064-7.346C39.023,99.369,38.915,99.193,38.741,99.108z M35.1,104.711l0.054-6.24l2.865,1.398l-0.055,6.239L35.1,104.711z   M31.029,95.268l-3.808-1.857c-0.155-0.076-0.336-0.066-0.483,0.024c-0.146,0.09-0.235,0.249-0.236,0.421l-0.053,7.313  c-0.001,0.193,0.107,0.368,0.281,0.453l3.861,1.884c0.155,0.075,0.338,0.066,0.484-0.025c0.146-0.091,0.235-0.252,0.235-0.424  v-7.341C31.31,95.525,31.201,95.351,31.029,95.268z M27.452,100.862l0.044-6.205l2.814,1.372v6.228L27.452,100.862z M23.38,91.571  l-3.861-1.917c-0.154-0.077-0.337-0.068-0.484,0.021c-0.146,0.09-0.237,0.25-0.238,0.422l-0.064,7.348  c-0.001,0.193,0.107,0.369,0.281,0.454l3.86,1.882c0.155,0.076,0.336,0.066,0.482-0.024c0.146-0.091,0.235-0.249,0.237-0.421  l0.064-7.313C23.659,91.832,23.551,91.656,23.38,91.571z M19.736,97.139l0.054-6.234l2.865,1.423L22.6,98.535L19.736,97.139z   M15.709,87.796l-3.843-1.875c-0.155-0.076-0.336-0.066-0.482,0.024c-0.146,0.091-0.235,0.249-0.237,0.421l-0.064,7.348  c-0.001,0.193,0.107,0.369,0.281,0.454l3.862,1.883c0.155,0.076,0.337,0.066,0.483-0.024c0.146-0.091,0.235-0.25,0.236-0.422  l0.044-7.356C15.991,88.055,15.882,87.88,15.709,87.796z M12.086,93.407l0.054-6.24l2.848,1.39l-0.038,6.247L12.086,93.407z   M46.118,113.731l-3.861-1.884c-0.155-0.076-0.336-0.066-0.482,0.024c-0.146,0.09-0.235,0.248-0.237,0.421l-0.063,7.349  c-0.001,0.192,0.107,0.369,0.281,0.453l3.861,1.882c0.155,0.075,0.336,0.066,0.482-0.024c0.146-0.09,0.235-0.248,0.237-0.421  l0.063-7.347C46.4,113.992,46.291,113.815,46.118,113.731z M42.477,119.334l0.054-6.24l2.865,1.397l-0.054,6.239L42.477,119.334z   M38.41,110.052l-3.861-1.884c-0.155-0.076-0.336-0.066-0.482,0.024c-0.146,0.09-0.235,0.248-0.237,0.421l-0.064,7.348  c-0.001,0.192,0.107,0.369,0.281,0.453l3.861,1.881c0.154,0.075,0.335,0.066,0.482-0.024s0.235-0.248,0.237-0.421l0.064-7.345  C38.692,110.312,38.583,110.136,38.41,110.052z M34.768,115.653l0.054-6.239l2.865,1.397l-0.054,6.237L34.768,115.653z   M30.698,106.211l-3.808-1.858c-0.155-0.075-0.336-0.066-0.482,0.024c-0.146,0.091-0.235,0.249-0.237,0.421l-0.053,7.314  c-0.001,0.193,0.107,0.369,0.281,0.453l3.861,1.884c0.155,0.075,0.338,0.066,0.484-0.025c0.146-0.091,0.235-0.252,0.235-0.424v-7.34  C30.979,106.469,30.87,106.295,30.698,106.211z M27.12,111.805l0.045-6.205l2.814,1.373v6.227L27.12,111.805z M23.048,102.514  l-3.86-1.917c-0.154-0.077-0.337-0.068-0.484,0.021c-0.146,0.09-0.237,0.25-0.238,0.422l-0.064,7.349  c-0.001,0.192,0.107,0.369,0.281,0.453l3.86,1.883c0.155,0.075,0.336,0.066,0.482-0.024c0.146-0.09,0.235-0.248,0.237-0.421  l0.064-7.313C23.327,102.775,23.22,102.6,23.048,102.514z M19.404,108.081l0.054-6.233l2.864,1.424l-0.054,6.207L19.404,108.081z   M15.377,98.739l-3.842-1.874c-0.155-0.076-0.336-0.066-0.482,0.024c-0.146,0.091-0.235,0.249-0.237,0.421l-0.063,7.348  c-0.001,0.192,0.107,0.369,0.281,0.453l3.862,1.884c0.155,0.075,0.337,0.066,0.483-0.024c0.146-0.091,0.235-0.25,0.236-0.422  l0.044-7.357C15.659,98.998,15.55,98.823,15.377,98.739z M11.755,104.35l0.054-6.239l2.847,1.389l-0.037,6.248L11.755,104.35z   M45.988,124.729l-3.862-1.884c-0.155-0.075-0.336-0.066-0.482,0.024c-0.146,0.09-0.235,0.248-0.237,0.421l-0.063,7.348  c-0.001,0.192,0.107,0.369,0.281,0.453l3.861,1.883c0.155,0.075,0.336,0.066,0.482-0.024c0.146-0.09,0.235-0.248,0.237-0.421  l0.064-7.347C46.27,124.99,46.161,124.813,45.988,124.729z M42.346,130.331l0.054-6.239l2.866,1.397l-0.054,6.239L42.346,130.331z   M38.279,121.049l-3.862-1.884c-0.155-0.075-0.336-0.066-0.482,0.024c-0.146,0.09-0.235,0.248-0.237,0.421l-0.063,7.349  c-0.001,0.192,0.107,0.369,0.281,0.453l3.861,1.882c0.155,0.075,0.336,0.066,0.482-0.024c0.146-0.09,0.235-0.248,0.237-0.421  l0.064-7.347C38.562,121.31,38.453,121.133,38.279,121.049z M34.638,126.651l0.054-6.24l2.866,1.397l-0.055,6.239L34.638,126.651z   M30.567,117.207l-3.809-1.855c-0.155-0.076-0.336-0.066-0.482,0.024c-0.146,0.091-0.235,0.249-0.236,0.421l-0.052,7.313  c-0.001,0.193,0.107,0.368,0.281,0.453l3.861,1.884c0.155,0.075,0.338,0.066,0.484-0.025c0.146-0.091,0.235-0.252,0.235-0.424  v-7.342C30.848,117.465,30.739,117.29,30.567,117.207z M26.99,122.803l0.044-6.205l2.814,1.371v6.229L26.99,122.803z   M22.918,113.512l-3.861-1.917c-0.154-0.076-0.337-0.068-0.484,0.022c-0.146,0.09-0.237,0.249-0.238,0.422l-0.064,7.348  c-0.001,0.192,0.107,0.369,0.281,0.453l3.86,1.882c0.155,0.075,0.336,0.066,0.482-0.024c0.146-0.09,0.235-0.248,0.237-0.42  l0.064-7.312C23.197,113.773,23.089,113.598,22.918,113.512z M19.274,119.079l0.054-6.233l2.865,1.423l-0.055,6.207L19.274,119.079z   M15.247,109.738l-3.843-1.875c-0.155-0.075-0.336-0.066-0.482,0.024c-0.146,0.09-0.235,0.248-0.237,0.421l-0.064,7.347  c-0.001,0.192,0.107,0.369,0.281,0.453l3.862,1.884c0.155,0.075,0.336,0.066,0.483-0.024s0.235-0.25,0.236-0.422l0.044-7.355  C15.529,109.998,15.42,109.822,15.247,109.738z M11.624,115.348l0.054-6.238l2.848,1.39l-0.038,6.246L11.624,115.348z   M45.987,135.671l-3.862-1.881c-0.155-0.075-0.335-0.066-0.482,0.024c-0.146,0.09-0.235,0.248-0.237,0.421l-0.063,7.347  c-0.001,0.192,0.107,0.368,0.281,0.453l3.861,1.884c0.155,0.075,0.336,0.066,0.482-0.024c0.146-0.09,0.235-0.248,0.237-0.421  l0.064-7.35C46.27,135.932,46.161,135.755,45.987,135.671z M42.346,141.274l0.054-6.239l2.866,1.396l-0.054,6.242L42.346,141.274z   M38.279,131.992l-3.862-1.884c-0.155-0.075-0.336-0.066-0.482,0.024c-0.146,0.09-0.235,0.248-0.237,0.421l-0.063,7.348  c-0.001,0.192,0.107,0.368,0.281,0.453l3.861,1.884c0.155,0.075,0.336,0.066,0.482-0.024c0.146-0.09,0.235-0.248,0.237-0.421  l0.064-7.348C38.562,132.253,38.453,132.076,38.279,131.992z M34.637,137.594l0.054-6.239l2.866,1.397l-0.055,6.24L34.637,137.594z   M30.567,128.151l-3.809-1.858c-0.155-0.075-0.336-0.066-0.482,0.024c-0.146,0.091-0.235,0.249-0.237,0.421l-0.052,7.315  c-0.001,0.193,0.107,0.369,0.281,0.453l3.861,1.882c0.155,0.075,0.338,0.066,0.484-0.025c0.146-0.091,0.235-0.252,0.235-0.424  v-7.339C30.848,128.409,30.739,128.235,30.567,128.151z M26.99,133.746l0.044-6.206l2.814,1.373v6.227L26.99,133.746z   M22.918,124.455l-3.861-1.918c-0.154-0.076-0.337-0.068-0.484,0.022c-0.146,0.09-0.237,0.249-0.238,0.422l-0.064,7.348  c-0.001,0.192,0.107,0.368,0.281,0.453l3.86,1.884c0.155,0.075,0.336,0.066,0.482-0.024c0.146-0.09,0.235-0.248,0.237-0.421  l0.064-7.312C23.197,124.717,23.09,124.541,22.918,124.455z M19.274,130.021l0.054-6.232l2.865,1.424l-0.055,6.207L19.274,130.021z   M15.247,120.68l-3.843-1.875c-0.155-0.075-0.336-0.066-0.482,0.024c-0.146,0.09-0.235,0.248-0.237,0.421l-0.064,7.348  c-0.001,0.192,0.107,0.369,0.281,0.453l3.862,1.884c0.155,0.075,0.336,0.066,0.483-0.024s0.235-0.25,0.236-0.422l0.044-7.356  C15.529,120.939,15.42,120.764,15.247,120.68z M11.624,126.29l0.054-6.239l2.848,1.39l-0.038,6.247L11.624,126.29z M45.988,146.615  l-3.862-1.884c-0.155-0.075-0.336-0.066-0.482,0.024c-0.146,0.09-0.235,0.248-0.237,0.421l-0.063,7.348  c-0.001,0.192,0.107,0.368,0.281,0.453l3.861,1.884c0.155,0.075,0.336,0.066,0.482-0.024c0.146-0.09,0.235-0.248,0.237-0.421  l0.064-7.348C46.27,146.876,46.161,146.699,45.988,146.615z M42.346,152.217l0.054-6.239l2.866,1.397l-0.054,6.24L42.346,152.217z   M38.279,142.935l-3.862-1.884c-0.155-0.075-0.336-0.066-0.482,0.024c-0.146,0.09-0.235,0.248-0.237,0.421l-0.063,7.348  c-0.001,0.192,0.107,0.369,0.281,0.453l3.861,1.883c0.155,0.075,0.336,0.066,0.482-0.024c0.146-0.09,0.235-0.248,0.237-0.421  l0.064-7.347C38.562,143.195,38.453,143.019,38.279,142.935z M34.638,148.536l0.054-6.239l2.866,1.397l-0.055,6.239L34.638,148.536z   M30.567,139.094l-3.809-1.856c-0.155-0.075-0.336-0.066-0.483,0.024c-0.146,0.091-0.235,0.249-0.236,0.421l-0.052,7.313  c-0.001,0.193,0.107,0.368,0.281,0.453l3.861,1.884c0.155,0.075,0.338,0.066,0.484-0.025c0.146-0.091,0.235-0.252,0.235-0.424  v-7.341C30.848,139.352,30.739,139.178,30.567,139.094z M26.99,144.688l0.044-6.205l2.814,1.372v6.228L26.99,144.688z   M22.918,135.396l-3.861-1.917c-0.154-0.076-0.337-0.068-0.484,0.022c-0.146,0.09-0.237,0.249-0.238,0.422l-0.064,7.347  c-0.001,0.192,0.107,0.368,0.281,0.453l3.86,1.884c0.155,0.075,0.336,0.066,0.482-0.024c0.146-0.09,0.235-0.248,0.237-0.421  l0.064-7.312C23.197,135.658,23.089,135.482,22.918,135.396z M19.274,140.963l0.054-6.232l2.865,1.423l-0.055,6.208L19.274,140.963z   M15.247,131.622l-3.843-1.875c-0.155-0.075-0.336-0.066-0.482,0.024c-0.146,0.09-0.235,0.248-0.237,0.421l-0.064,7.349  c-0.001,0.192,0.107,0.369,0.281,0.453l3.862,1.884c0.155,0.075,0.336,0.066,0.483-0.024s0.235-0.25,0.236-0.422l0.044-7.357  C15.529,131.882,15.42,131.706,15.247,131.622z M11.624,137.233l0.054-6.24l2.848,1.39l-0.038,6.248L11.624,137.233z M45.988,157.89  l-3.862-1.884c-0.155-0.075-0.336-0.066-0.482,0.024c-0.146,0.09-0.235,0.248-0.237,0.421l-0.063,7.348  c-0.001,0.192,0.107,0.368,0.281,0.453l3.861,1.884c0.155,0.075,0.336,0.066,0.482-0.024c0.146-0.09,0.235-0.248,0.237-0.421  l0.064-7.348C46.27,158.15,46.161,157.974,45.988,157.89z M42.346,163.491l0.054-6.239l2.866,1.397l-0.054,6.24L42.346,163.491z   M38.279,154.209l-3.862-1.884c-0.155-0.075-0.336-0.066-0.482,0.024c-0.146,0.09-0.235,0.248-0.237,0.421l-0.063,7.348  c-0.001,0.192,0.107,0.369,0.281,0.453l3.861,1.883c0.155,0.075,0.336,0.066,0.482-0.024c0.146-0.09,0.235-0.248,0.237-0.421  l0.064-7.347C38.562,154.47,38.453,154.293,38.279,154.209z M34.638,159.811l0.054-6.239l2.866,1.397l-0.055,6.239L34.638,159.811z   M30.567,150.368l-3.809-1.856c-0.155-0.076-0.336-0.066-0.483,0.024c-0.146,0.091-0.235,0.249-0.236,0.421l-0.052,7.313  c-0.001,0.193,0.107,0.368,0.281,0.453l3.861,1.884c0.155,0.075,0.338,0.066,0.484-0.025c0.146-0.091,0.235-0.252,0.235-0.424  v-7.341C30.848,150.626,30.739,150.452,30.567,150.368z M26.99,155.963l0.044-6.205l2.814,1.372v6.228L26.99,155.963z   M22.918,146.671l-3.861-1.917c-0.154-0.076-0.337-0.068-0.484,0.022c-0.146,0.09-0.237,0.249-0.238,0.422l-0.064,7.347  c-0.001,0.192,0.107,0.368,0.281,0.453l3.86,1.884c0.155,0.075,0.336,0.066,0.482-0.024c0.146-0.09,0.235-0.248,0.237-0.42  l0.064-7.314C23.197,146.933,23.089,146.757,22.918,146.671z M19.274,152.237l0.054-6.232l2.865,1.423l-0.055,6.208L19.274,152.237z   M15.247,142.896l-3.843-1.875c-0.155-0.075-0.336-0.066-0.482,0.024c-0.146,0.09-0.235,0.248-0.237,0.421l-0.064,7.35  c-0.001,0.192,0.107,0.369,0.281,0.453l3.862,1.883c0.155,0.075,0.337,0.066,0.483-0.024c0.146-0.091,0.235-0.25,0.236-0.422  l0.044-7.357C15.529,143.156,15.42,142.98,15.247,142.896z M11.624,148.509l0.054-6.241l2.848,1.39l-0.038,6.248L11.624,148.509z   M45.656,168.832l-3.861-1.884c-0.155-0.075-0.337-0.066-0.483,0.024c-0.146,0.091-0.235,0.25-0.236,0.422l-0.063,10.938  c0,0.079,0.028,0.151,0.062,0.22l-0.062,7.133c-0.001,0.192,0.107,0.369,0.281,0.453l3.861,1.884  c0.155,0.075,0.336,0.066,0.482-0.024c0.146-0.09,0.235-0.248,0.237-0.421l0.063-7.348c0-0.08-0.028-0.153-0.062-0.223l0.062-10.722  C45.938,169.091,45.829,168.916,45.656,168.832z M44.935,169.593l-0.057,9.803L42.014,178l0.057-9.805L44.935,169.593z   M42.015,185.377l0.054-6.215l2.865,1.396l-0.054,6.217L42.015,185.377z M37.947,165.15l-3.861-1.881  c-0.155-0.076-0.336-0.066-0.482,0.024c-0.146,0.091-0.235,0.25-0.236,0.422L33.303,174.5c0,0.081,0.028,0.155,0.063,0.225  l-0.063,7.279c-0.001,0.192,0.107,0.368,0.281,0.453l3.861,1.884c0.155,0.075,0.336,0.066,0.482-0.024  c0.146-0.09,0.235-0.248,0.237-0.421l0.064-7.348c0-0.082-0.028-0.158-0.064-0.229l0.064-10.717  C38.229,165.41,38.121,165.234,37.947,165.15z M34.362,164.516l2.864,1.396l-0.058,9.678l-2.864-1.397L34.362,164.516z   M34.306,181.696l0.054-6.239l2.865,1.397l-0.055,6.24L34.306,181.696z M30.236,161.312l-3.808-1.858  c-0.155-0.075-0.337-0.066-0.483,0.024c-0.146,0.091-0.235,0.25-0.236,0.423l-0.053,10.934c0,0.065,0.028,0.123,0.052,0.183  l-0.052,7.14c-0.001,0.193,0.107,0.369,0.281,0.453l3.861,1.884c0.155,0.075,0.338,0.066,0.484-0.025  c0.146-0.091,0.235-0.252,0.235-0.424v-7.324v-0.017v-10.942C30.517,161.569,30.408,161.396,30.236,161.312z M29.517,162.073v9.83  l-2.86-1.395l0.048-9.808L29.517,162.073z M26.658,177.849l0.045-6.189l2.814,1.373v6.211L26.658,177.849z M22.586,157.613  l-3.86-1.915c-0.154-0.076-0.338-0.067-0.484,0.022c-0.146,0.091-0.237,0.251-0.238,0.423l-0.064,10.885  c0,0.08,0.028,0.153,0.062,0.223l-0.062,7.181c-0.001,0.192,0.107,0.369,0.281,0.453l3.86,1.883  c0.155,0.075,0.336,0.066,0.482-0.024c0.146-0.09,0.235-0.248,0.237-0.421l0.064-7.313c0-0.081-0.028-0.156-0.063-0.227  l0.063-10.718C22.865,157.873,22.757,157.698,22.586,157.613z M18.999,156.95l2.863,1.421l-0.057,9.744l-2.863-1.396L18.999,156.95z   M18.942,174.124l0.054-6.233l2.864,1.423l-0.054,6.208L18.942,174.124z M14.916,153.839l-3.843-1.874  c-0.155-0.076-0.337-0.066-0.483,0.024c-0.146,0.091-0.235,0.25-0.236,0.422l-0.064,10.842c0,0.081,0.028,0.154,0.063,0.224  L10.29,170.7c-0.001,0.192,0.107,0.369,0.281,0.453l3.862,1.884c0.155,0.075,0.336,0.066,0.483-0.024s0.235-0.25,0.236-0.422  l0.044-7.356c0-0.057-0.027-0.105-0.044-0.157l0.044-10.787C15.197,154.099,15.087,153.923,14.916,153.839z M11.349,153.212  l2.846,1.388l-0.04,9.74l-2.864-1.396L11.349,153.212z M11.292,170.393l0.054-6.239l2.848,1.39l-0.038,6.247L11.292,170.393z" fill="#1c739b" style="fill: rgb(28, 115, 155);"></path></g></svg>